<svg xmlns="http://www.w3.org/2000/svg" viewBox="0 0 400 200">
  <rect width="400" height="200" fill="#0d1117"/>
  <rect x="60" y="40" width="130" height="120" rx="10" fill="#161b22" stroke="#3b82f6" stroke-width="2"/>
  <rect x="75" y="55" width="30" height="6" rx="2" fill="#3b82f6"/>
  <rect x="75" y="68" width="100" height="4" rx="2" fill="#8b949e" opacity="0.4"/>
  <rect x="75" y="78" width="80" height="4" rx="2" fill="#8b949e" opacity="0.4"/>
  <rect x="75" y="92" width="90" height="20" rx="4" fill="#238636" opacity="0.15" stroke="#238636" stroke-width="1"/>
  <text x="95" y="106" font-family="monospace" font-size="8" fill="#238636">{ }</text>
  <text x="115" y="106" font-family="monospace" font-size="7" fill="#238636">.json</text>
  <rect x="75" y="120" width="40" height="12" rx="3" fill="#3b82f6" opacity="0.2"/>
  <rect x="120" y="120" width="40" height="12" rx="3" fill="#10b981" opacity="0.2"/>
  <text x="83" y="129" font-family="monospace" font-size="6" fill="#3b82f6">node</text>
  <text x="125" y="129" font-family="monospace" font-size="6" fill="#10b981">python</text>
  <rect x="220" y="40" width="130" height="120" rx="10" fill="#161b22" stroke="#30363d" stroke-width="1.5" stroke-dasharray="6,3"/>
  <rect x="250" y="70" width="70" height="60" rx="8" fill="#1f2937" stroke="#8b949e" stroke-width="1"/>
  <text x="285" y="95" font-family="monospace" font-size="10" fill="#8b949e" text-anchor="middle">☁️</text>
  <text x="285" y="115" font-family="monospace" font-size="7" fill="#8b949e" text-anchor="middle">Codespace</text>
  <path d="M190 100 L220 100" stroke="#3b82f6" stroke-width="2" stroke-dasharray="4,2" marker-end="url(#arrow)"/>
  <defs><marker id="arrow" markerWidth="6" markerHeight="6" refX="5" refY="3" orient="auto"><path d="M0,0 L6,3 L0,6" fill="#3b82f6"/></marker></defs>
  <text x="200" y="185" font-family="sans-serif" font-size="9" fill="#8b949e" text-anchor="middle">devcontainer.json → Cloud Environment</text>
</svg>
